<svg width="36" height="36" viewBox="0 0 36 36" fill="none" xmlns="http://www.w3.org/2000/svg">
<g id="Group">
<path id="Vector" d="M18 33C9.7155 33 3 26.2845 3 18C3 9.7155 9.7155 3 18 3C26.2845 3 33 9.7155 33 18C33 26.2845 26.2845 33 18 33ZM15.933 12.6225C15.8427 12.5623 15.7378 12.5277 15.6294 12.5223C15.521 12.517 15.4132 12.5412 15.3175 12.5923C15.2217 12.6434 15.1416 12.7195 15.0857 12.8125C15.0298 12.9055 15.0002 13.012 15 13.1205V22.8795C15.0002 22.988 15.0298 23.0945 15.0857 23.1875C15.1416 23.2805 15.2217 23.3566 15.3175 23.4077C15.4132 23.4588 15.521 23.483 15.6294 23.4777C15.7378 23.4723 15.8427 23.4377 15.933 23.3775L23.2515 18.4995C23.3338 18.4447 23.4013 18.3705 23.448 18.2833C23.4947 18.1962 23.5191 18.0989 23.5191 18C23.5191 17.9011 23.4947 17.8038 23.448 17.7167C23.4013 17.6295 23.3338 17.5553 23.2515 17.5005L15.9315 12.6225H15.933Z" fill="white"/>
</g>
</svg>
